<svg width="434" height="120" viewBox="0 0 434 120" fill="none" xmlns="http://www.w3.org/2000/svg">
<path d="M215.063 7.71875V6H227.062V7.71875H222.031V22H220.094V7.71875H215.063ZM231.646 14.7812V22H229.803V6H231.646V11.875H231.803C232.084 11.2552 232.506 10.763 233.068 10.3984C233.636 10.0286 234.391 9.84375 235.334 9.84375C236.152 9.84375 236.868 10.0078 237.482 10.3359C238.097 10.6589 238.574 11.1562 238.912 11.8281C239.256 12.4948 239.428 13.3437 239.428 14.375V22H237.584V14.5C237.584 13.5469 237.337 12.8099 236.842 12.2891C236.352 11.763 235.673 11.5 234.803 11.5C234.199 11.5 233.657 11.6276 233.178 11.8828C232.704 12.138 232.329 12.5104 232.053 13C231.782 13.4896 231.646 14.0833 231.646 14.7812ZM247.832 22.25C246.676 22.25 245.678 21.9948 244.84 21.4844C244.007 20.9688 243.363 20.25 242.91 19.3281C242.462 18.401 242.238 17.3229 242.238 16.0938C242.238 14.8646 242.462 13.7812 242.91 12.8437C243.363 11.901 243.993 11.1667 244.801 10.6406C245.613 10.1094 246.561 9.84375 247.645 9.84375C248.27 9.84375 248.887 9.94792 249.496 10.1562C250.105 10.3646 250.66 10.7031 251.16 11.1719C251.66 11.6354 252.059 12.25 252.355 13.0156C252.652 13.7812 252.801 14.724 252.801 15.8437V16.625H243.551V15.0312H250.926C250.926 14.3542 250.79 13.75 250.52 13.2187C250.254 12.6875 249.874 12.2682 249.379 11.9609C248.889 11.6536 248.311 11.5 247.645 11.5C246.91 11.5 246.275 11.6823 245.738 12.0469C245.207 12.4062 244.798 12.875 244.512 13.4531C244.225 14.0312 244.082 14.651 244.082 15.3125V16.375C244.082 17.2813 244.238 18.0495 244.551 18.6797C244.868 19.3047 245.309 19.7812 245.871 20.1094C246.434 20.4323 247.087 20.5938 247.832 20.5938C248.316 20.5938 248.754 20.526 249.145 20.3906C249.54 20.25 249.882 20.0417 250.168 19.7656C250.454 19.4844 250.676 19.1354 250.832 18.7187L252.613 19.2188C252.426 19.8229 252.111 20.3542 251.668 20.8125C251.225 21.2656 250.678 21.6198 250.027 21.875C249.376 22.125 248.645 22.25 247.832 22.25Z" fill="black"/>
<path d="M388.688 103C388.594 102.208 388.214 101.594 387.547 101.156C386.88 100.719 386.063 100.5 385.094 100.5C384.385 100.5 383.766 100.615 383.234 100.844C382.708 101.073 382.297 101.388 382 101.789C381.708 102.19 381.563 102.646 381.563 103.156C381.563 103.583 381.664 103.951 381.867 104.258C382.076 104.56 382.341 104.812 382.664 105.016C382.987 105.214 383.326 105.378 383.68 105.508C384.034 105.633 384.359 105.734 384.656 105.812L386.281 106.25C386.698 106.359 387.161 106.51 387.672 106.703C388.188 106.896 388.68 107.159 389.148 107.492C389.622 107.82 390.013 108.242 390.32 108.758C390.628 109.273 390.781 109.906 390.781 110.656C390.781 111.521 390.555 112.302 390.102 113C389.654 113.698 388.997 114.253 388.133 114.664C387.273 115.076 386.229 115.281 385 115.281C383.854 115.281 382.862 115.096 382.023 114.727C381.19 114.357 380.534 113.841 380.055 113.18C379.581 112.518 379.313 111.75 379.25 110.875H381.25C381.302 111.479 381.505 111.979 381.859 112.375C382.219 112.766 382.672 113.057 383.219 113.25C383.771 113.437 384.365 113.531 385 113.531C385.74 113.531 386.404 113.411 386.992 113.172C387.581 112.927 388.047 112.589 388.391 112.156C388.734 111.719 388.906 111.208 388.906 110.625C388.906 110.094 388.758 109.661 388.461 109.328C388.164 108.995 387.773 108.724 387.289 108.516C386.805 108.307 386.281 108.125 385.719 107.969L383.75 107.406C382.5 107.047 381.51 106.534 380.781 105.867C380.052 105.201 379.688 104.328 379.688 103.25C379.688 102.354 379.93 101.573 380.414 100.906C380.904 100.234 381.56 99.7135 382.383 99.3437C383.211 98.9687 384.135 98.7812 385.156 98.7812C386.188 98.7812 387.104 98.9661 387.906 99.3359C388.708 99.7005 389.344 100.201 389.812 100.836C390.286 101.471 390.536 102.193 390.563 103H388.688ZM398.936 103V104.562H392.717V103H398.936ZM394.529 100.125H396.373V111.562C396.373 112.083 396.449 112.474 396.6 112.734C396.756 112.99 396.954 113.161 397.193 113.25C397.438 113.333 397.696 113.375 397.967 113.375C398.17 113.375 398.337 113.365 398.467 113.344C398.597 113.318 398.701 113.297 398.779 113.281L399.154 114.937C399.029 114.984 398.855 115.031 398.631 115.078C398.407 115.13 398.123 115.156 397.779 115.156C397.258 115.156 396.748 115.044 396.248 114.82C395.753 114.596 395.342 114.255 395.014 113.797C394.691 113.339 394.529 112.76 394.529 112.062V100.125ZM406.455 115.25C405.372 115.25 404.421 114.992 403.604 114.477C402.791 113.961 402.156 113.24 401.697 112.312C401.244 111.385 401.018 110.302 401.018 109.062C401.018 107.812 401.244 106.721 401.697 105.789C402.156 104.857 402.791 104.133 403.604 103.617C404.421 103.102 405.372 102.844 406.455 102.844C407.538 102.844 408.486 103.102 409.299 103.617C410.117 104.133 410.752 104.857 411.205 105.789C411.663 106.721 411.893 107.812 411.893 109.062C411.893 110.302 411.663 111.385 411.205 112.312C410.752 113.24 410.117 113.961 409.299 114.477C408.486 114.992 407.538 115.25 406.455 115.25ZM406.455 113.594C407.278 113.594 407.955 113.383 408.486 112.961C409.018 112.539 409.411 111.984 409.666 111.297C409.921 110.609 410.049 109.865 410.049 109.062C410.049 108.26 409.921 107.513 409.666 106.82C409.411 106.128 409.018 105.568 408.486 105.141C407.955 104.714 407.278 104.5 406.455 104.5C405.632 104.5 404.955 104.714 404.424 105.141C403.893 105.568 403.499 106.128 403.244 106.82C402.989 107.513 402.861 108.26 402.861 109.062C402.861 109.865 402.989 110.609 403.244 111.297C403.499 111.984 403.893 112.539 404.424 112.961C404.955 113.383 405.632 113.594 406.455 113.594ZM414.707 115V103H416.488V104.812H416.613C416.832 104.219 417.228 103.737 417.801 103.367C418.374 102.997 419.02 102.812 419.738 102.812C419.874 102.812 420.043 102.815 420.246 102.82C420.449 102.826 420.603 102.833 420.707 102.844V104.719C420.645 104.703 420.501 104.68 420.277 104.648C420.059 104.612 419.827 104.594 419.582 104.594C418.999 104.594 418.478 104.716 418.02 104.961C417.566 105.201 417.207 105.534 416.941 105.961C416.681 106.383 416.551 106.865 416.551 107.406V115H414.707ZM427.559 115.25C426.402 115.25 425.405 114.995 424.566 114.484C423.733 113.969 423.09 113.25 422.637 112.328C422.189 111.401 421.965 110.323 421.965 109.094C421.965 107.865 422.189 106.781 422.637 105.844C423.09 104.901 423.72 104.167 424.527 103.641C425.34 103.109 426.288 102.844 427.371 102.844C427.996 102.844 428.613 102.948 429.223 103.156C429.832 103.365 430.387 103.703 430.887 104.172C431.387 104.635 431.785 105.25 432.082 106.016C432.379 106.781 432.527 107.724 432.527 108.844V109.625H423.277V108.031H430.652C430.652 107.354 430.517 106.75 430.246 106.219C429.98 105.687 429.6 105.268 429.105 104.961C428.616 104.654 428.038 104.5 427.371 104.5C426.637 104.5 426.001 104.682 425.465 105.047C424.934 105.406 424.525 105.875 424.238 106.453C423.952 107.031 423.809 107.651 423.809 108.312V109.375C423.809 110.281 423.965 111.049 424.277 111.68C424.595 112.305 425.035 112.781 425.598 113.109C426.16 113.432 426.814 113.594 427.559 113.594C428.043 113.594 428.48 113.526 428.871 113.391C429.267 113.25 429.608 113.042 429.895 112.766C430.181 112.484 430.402 112.135 430.559 111.719L432.34 112.219C432.152 112.823 431.837 113.354 431.395 113.812C430.952 114.266 430.405 114.62 429.754 114.875C429.103 115.125 428.371 115.25 427.559 115.25Z" fill="black"/>
<path d="M244.892 45.4545C244.56 42.6477 243.212 40.4688 240.848 38.9176C238.484 37.3665 235.585 36.5909 232.151 36.5909C229.639 36.5909 227.442 36.9972 225.558 37.8097C223.693 38.6222 222.234 39.7393 221.182 41.1612C220.148 42.5831 219.631 44.1989 219.631 46.0085C219.631 47.5227 219.991 48.8246 220.711 49.9141C221.45 50.9851 222.391 51.8807 223.536 52.6009C224.681 53.3026 225.881 53.8842 227.137 54.3459C228.393 54.7891 229.547 55.1491 230.599 55.4261L236.361 56.9773C237.838 57.3651 239.482 57.9006 241.291 58.5838C243.119 59.267 244.864 60.1996 246.526 61.3814C248.207 62.5447 249.592 64.0405 250.681 65.8686C251.771 67.6967 252.315 69.9403 252.315 72.5994C252.315 75.6648 251.512 78.4347 249.906 80.9091C248.317 83.3835 245.991 85.3501 242.925 86.8089C239.879 88.2678 236.176 88.9972 231.818 88.9972C227.756 88.9972 224.238 88.3416 221.265 87.0305C218.31 85.7195 215.984 83.8913 214.285 81.5462C212.604 79.201 211.653 76.4773 211.432 73.375H218.523C218.707 75.517 219.428 77.2898 220.683 78.6932C221.957 80.0781 223.564 81.1122 225.503 81.7955C227.46 82.4602 229.565 82.7926 231.818 82.7926C234.44 82.7926 236.795 82.3679 238.881 81.5185C240.968 80.6506 242.621 79.4503 243.839 77.9176C245.058 76.3665 245.668 74.5568 245.668 72.4886C245.668 70.6051 245.141 69.0724 244.089 67.8906C243.036 66.7088 241.651 65.7486 239.934 65.0099C238.217 64.2713 236.361 63.625 234.366 63.071L227.386 61.0767C222.955 59.8026 219.446 57.9837 216.861 55.62C214.276 53.2564 212.983 50.1634 212.983 46.3409C212.983 43.1648 213.842 40.3949 215.559 38.0312C217.295 35.6491 219.621 33.8026 222.539 32.4915C225.475 31.1619 228.753 30.4972 232.372 30.4972C236.028 30.4972 239.278 31.1527 242.122 32.4638C244.966 33.7564 247.219 35.5291 248.881 37.782C250.561 40.0348 251.447 42.5923 251.54 45.4545H244.892ZM263.61 88V31.2727H270.479V56.5341H300.726V31.2727H307.595V88H300.726V62.6278H270.479V88H263.61ZM369.211 59.6364C369.211 65.6193 368.131 70.7898 365.971 75.1477C363.81 79.5057 360.846 82.8665 357.079 85.2301C353.312 87.5938 349.01 88.7756 344.172 88.7756C339.334 88.7756 335.031 87.5938 331.264 85.2301C327.497 82.8665 324.533 79.5057 322.373 75.1477C320.212 70.7898 319.132 65.6193 319.132 59.6364C319.132 53.6534 320.212 48.483 322.373 44.125C324.533 39.767 327.497 36.4062 331.264 34.0426C335.031 31.679 339.334 30.4972 344.172 30.4972C349.01 30.4972 353.312 31.679 357.079 34.0426C360.846 36.4062 363.81 39.767 365.971 44.125C368.131 48.483 369.211 53.6534 369.211 59.6364ZM362.564 59.6364C362.564 54.7244 361.742 50.5788 360.099 47.1996C358.474 43.8203 356.267 41.2628 353.479 39.527C350.709 37.7912 347.606 36.9233 344.172 36.9233C340.737 36.9233 337.626 37.7912 334.837 39.527C332.067 41.2628 329.861 43.8203 328.217 47.1996C326.592 50.5788 325.78 54.7244 325.78 59.6364C325.78 64.5483 326.592 68.6939 328.217 72.0732C329.861 75.4524 332.067 78.0099 334.837 79.7457C337.626 81.4815 340.737 82.3494 344.172 82.3494C347.606 82.3494 350.709 81.4815 353.479 79.7457C356.267 78.0099 358.474 75.4524 360.099 72.0732C361.742 68.6939 362.564 64.5483 362.564 59.6364ZM380.762 88V31.2727H414.998V37.3665H387.631V56.5341H413.225V62.6278H387.631V81.9062H415.441V88H380.762Z" fill="#190665"/>
<path d="M280.501 95.4999C280.388 95.5006 280.28 95.5382 280.191 95.6069C280.103 95.6756 280.039 95.7715 280.011 95.8799C279.96 96.0837 279.861 96.2722 279.722 96.429C279.583 96.5858 279.407 96.7063 279.211 96.7799C279.026 96.8546 278.826 96.8836 278.627 96.8644C278.429 96.8453 278.238 96.7785 278.071 96.6699C273.851 93.8599 267.001 85.2699 266.891 85.1899C266.82 85.1006 266.721 85.0381 266.61 85.0127C266.499 84.9872 266.383 85.0004 266.281 85.0499C265.579 85.4405 264.996 86.0142 264.595 86.7098C264.193 87.4054 263.988 88.1969 264.001 88.9999C264.029 90.0222 264.282 91.0257 264.741 91.9399C266.185 94.848 266.957 98.0433 267.001 101.29V102.5C267.001 102.633 267.053 102.76 267.147 102.853C267.241 102.947 267.368 103 267.501 103H269.501C269.633 103 269.76 102.947 269.854 102.853C269.948 102.76 270.001 102.633 270.001 102.5V94.7499C271.403 95.5177 272.634 96.5621 273.621 97.8199C274.201 98.5154 274.742 99.2433 275.241 99.9999H281.001C281.133 99.9999 281.26 100.053 281.354 100.146C281.448 100.24 281.501 100.367 281.501 100.5C281.501 100.633 281.448 100.76 281.354 100.853C281.26 100.947 281.133 101 281.001 101H275.841C276.129 101.492 276.351 102.02 276.501 102.57C276.519 102.689 276.58 102.798 276.672 102.877C276.763 102.955 276.88 102.999 277.001 103H285.001C285.066 103.001 285.131 102.988 285.191 102.962C285.252 102.936 285.306 102.898 285.351 102.85C285.865 102.181 286.098 101.338 286.001 100.5C286.001 97.8399 283.431 95.4999 280.501 95.4999Z" fill="#190665"/>
<path d="M1.99432 31.2727H9.8608L25.5938 57.7528H26.2585L41.9915 31.2727H49.858L29.3608 64.6222V88H22.4915V64.6222L1.99432 31.2727ZM58.7424 88V31.2727H92.9782V37.3665H65.6117V56.5341H91.2054V62.6278H65.6117V81.9062H93.4213V88H58.7424ZM105.36 88V31.2727H112.229V81.9062H138.598V88H105.36ZM149.235 88V31.2727H156.104V81.9062H182.473V88H149.235ZM199.979 31.2727V88H193.11V31.2727H199.979Z" fill="#0D062C" fill-opacity="0.86"/>
</svg>
